<svg xmlns="http://www.w3.org/2000/svg" viewBox="0 0 237.43 79.2">
  <defs>
    <style>
      .cls-1, .cls-2, .cls-3, .cls-4, .cls-5, .cls-6 {
        fill: none;
        stroke-miterlimit: 10;
      }

      .cls-1 {
        stroke: #b7b7b7;
      }

      .cls-2 {
        stroke: #f499c1;
      }

      .cls-3 {
        stroke: #a9d9bc;
      }

      .cls-4 {
        stroke: #fbf49c;
      }

      .cls-5 {
        stroke: #cb9ac6;
      }

      .cls-6 {
        stroke: #46c8f5;
      }
    </style>
  </defs>
  <g id="Ex">
    <path class="cls-1" d="M264.57,109.94c-2.26,0-3.38-1.06-3.38-3.18s1.12-3.18,3.38-3.18,3.39,1.06,3.39,3.18S266.83,109.94,264.57,109.94ZM263,32.26h3.39V99H263Z" transform="translate(-31.03 -31.76)"/>
  </g>
  <g id="O">
    <path class="cls-2" d="M207.62,103a23.85,23.85,0,0,1-7.08-17.09,23,23,0,0,1,7.18-16.88,24.47,24.47,0,0,1,34.53,0A23.11,23.11,0,0,1,249.39,86a23.94,23.94,0,0,1-7,17.09,22.61,22.61,0,0,1-16.93,7.28h-.93A22.7,22.7,0,0,1,207.62,103ZM246.1,86.19a20.84,20.84,0,0,0-6.21-15,20,20,0,0,0-14.83-6.36,20.28,20.28,0,0,0-14.93,6.41,20.79,20.79,0,0,0-6.31,15,21.55,21.55,0,0,0,21.3,21.24,19.93,19.93,0,0,0,14.82-6.31A20.71,20.71,0,0,0,246.1,86.19Z" transform="translate(-31.03 -31.76)"/>
  </g>
  <g id="L2">
    <path class="cls-3" d="M199,107.27v2.88a17.38,17.38,0,0,1-12.42-4.88,16.44,16.44,0,0,1-5.13-12.47V32.26h3.29V92.8A14.09,14.09,0,0,0,199,107.27Z" transform="translate(-31.03 -31.76)"/>
  </g>
  <g id="L1">
    <path class="cls-4" d="M173.24,107.27v2.88a17.37,17.37,0,0,1-12.41-4.88A16.44,16.44,0,0,1,155.7,92.8V32.26H159V92.8a14,14,0,0,0,4.16,10.37A13.82,13.82,0,0,0,173.24,107.27Z" transform="translate(-31.03 -31.76)"/>
  </g>
  <g id="E">
    <path class="cls-5" d="M128,110.46h-.92a23.13,23.13,0,0,1-17-7.34A23.6,23.6,0,0,1,102.85,86,23,23,0,0,1,110,69.15,24.23,24.23,0,0,1,127.78,62q10.58,0,18.17,8.41l-32.22,31.82q6.66,5.32,12.82,5.33a21.61,21.61,0,0,0,11-2.82,24.21,24.21,0,0,0,8.06-7.54v5.23A23,23,0,0,1,128,110.46Zm-1.08-45.57a19.93,19.93,0,0,0-14.47,6.31,20,20,0,0,0-6.31,14.52,21,21,0,0,0,5.44,14.37l29.86-29.66A21.5,21.5,0,0,0,126.91,64.89Z" transform="translate(-31.03 -31.76)"/>
  </g>
  <g id="H">
    <path class="cls-6" d="M87.66,32.26h3.39v77H87.66V79.88H34.92v29.34H31.53v-77h3.39V76.9H87.66Z" transform="translate(-31.03 -31.76)"/>
  </g>
</svg>
